<svg xmlns="http://www.w3.org/2000/svg" viewBox="0 0 48 48" fill="none">
  <rect width="48" height="48" rx="8" fill="#1677FF"/>
  <path d="M35.2 29.4c-2.1-.9-4.5-1.9-6.3-2.7.8-1.6 1.4-3.5 1.8-5.5h-5.3v-2h6.4v-1.4h-6.4v-3.6h-2.8c-.3 0-.5.2-.5.5v3.1h-6.2v1.4h6.2v2h-5.1v1.4h9.5c-.3 1.4-.8 2.7-1.4 3.8-2.5-1-5.4-1.8-7.7-1.5-3.8.5-5.8 3.1-5.4 5.8.4 2.7 3.1 4.3 6.2 4.1 3.1-.2 5.6-1.8 7.5-4.3 2.5 1.2 7.7 3.4 7.7 3.4l1.8-4.5z M19.8 33.2c-2.2.3-3.8-.6-4-2-.2-1.4.9-2.8 2.9-3.1 1.2-.2 2.7.1 4.3.7-1 1.9-2.3 3.1-4 3.9-.4.2-.8.4-1.2.5.7 0 1.3-.1 2-.2z" fill="white"/>
</svg>
