<svg xmlns="http://www.w3.org/2000/svg" viewBox="0 0 48 48" fill="none">
  <rect width="48" height="48" rx="8" fill="#07C160"/>
  <path
    d="M21.6 13C14.6 13 9 17.8 9 23.7c0 3.3 1.8 6.2 4.6 8.2l-1.1 4.1 4.5-2.5c1.4.4 2.9.6 4.5.6 7 0 12.6-4.8 12.6-10.8C34.2 17.8 28.6 13 21.6 13z"
    fill="white"
  />
  <path
    d="M30.2 22.2c-5 0-9.1 3.4-9.1 7.7 0 2.1 1 4 2.7 5.4l-.7 3.2 3.6-2c1.1.3 2.2.5 3.4.5 5 0 9.1-3.4 9.1-7.7s-4.1-7.1-9-7.1z"
    fill="white"
    fill-opacity="0.92"
  />
  <circle cx="17.6" cy="22.6" r="1.4" fill="#07C160"/>
  <circle cx="24" cy="22.6" r="1.4" fill="#07C160"/>
  <circle cx="27.8" cy="29.6" r="1.2" fill="#07C160"/>
  <circle cx="32.2" cy="29.6" r="1.2" fill="#07C160"/>
</svg>
